<svg width="26" height="22" viewBox="0 0 26 22" fill="none" xmlns="http://www.w3.org/2000/svg">
<path d="M22.7596 0H2.45184C1.09987 0 0 1.09987 0 2.45179V19.5482C0 20.9001 1.09987 22 2.45184 22H22.7596C24.1116 22 25.2115 20.9001 25.2115 19.5482V2.45179C25.2115 1.09987 24.1116 0 22.7596 0V0ZM2.45184 1.47773H22.7596C23.2968 1.47773 23.7338 1.91469 23.7338 2.45179V5.82668H1.47773V2.45179C1.47773 1.91469 1.91474 1.47773 2.45184 1.47773V1.47773ZM22.7596 20.5223H2.45184C1.91474 20.5223 1.47773 20.0853 1.47773 19.5482V7.3044H23.7338V19.5482C23.7338 20.0853 23.2968 20.5223 22.7596 20.5223V20.5223Z" fill="white"/>
<path d="M3.70956 4.43981C4.12032 4.43981 4.4533 4.10683 4.4533 3.69607C4.4533 3.28532 4.12032 2.95233 3.70956 2.95233C3.2988 2.95233 2.96582 3.28532 2.96582 3.69607C2.96582 4.10683 3.2988 4.43981 3.70956 4.43981Z" fill="white"/>
<path d="M6.73373 4.43981C7.14449 4.43981 7.47747 4.10683 7.47747 3.69607C7.47747 3.28532 7.14449 2.95233 6.73373 2.95233C6.32297 2.95233 5.98999 3.28532 5.98999 3.69607C5.98999 4.10683 6.32297 4.43981 6.73373 4.43981Z" fill="white"/>
<path d="M9.89486 4.43981C10.3056 4.43981 10.6386 4.10683 10.6386 3.69607C10.6386 3.28532 10.3056 2.95233 9.89486 2.95233C9.48411 2.95233 9.15112 3.28532 9.15112 3.69607C9.15112 4.10683 9.48411 4.43981 9.89486 4.43981Z" fill="white"/>
<path d="M8.10218 11.8263C7.7163 11.6938 7.29588 11.8991 7.16323 12.2849L6.85754 13.1742L6.50806 12.261C6.34068 11.7293 5.40548 11.5368 5.11924 12.2849L4.81355 13.1742L4.46406 12.261C4.31821 11.8799 3.89095 11.6891 3.5099 11.8351C3.12879 11.981 2.93807 12.4082 3.08392 12.7892L4.16074 15.6029C4.27033 15.8892 4.54504 16.0777 4.85069 16.0777C4.85492 16.0777 4.85926 16.0776 4.86349 16.0776C5.17426 16.0722 5.44848 15.8729 5.5495 15.579L5.8552 14.6897L6.20468 15.6029C6.31428 15.8892 6.58899 16.0777 6.89463 16.0777C6.89887 16.0777 6.9032 16.0776 6.90744 16.0776C7.2182 16.0722 7.49242 15.8729 7.59345 15.579L8.56057 12.7653C8.69342 12.3794 8.48811 11.959 8.10218 11.8263V11.8263Z" fill="white"/>
<path d="M14.8898 11.8263C14.5038 11.6938 14.0835 11.8991 13.9508 12.2849L13.6451 13.1742L13.2957 12.261C13.1279 11.7288 12.1924 11.5374 11.9068 12.2849L11.6011 13.1742L11.2517 12.261C11.1058 11.8799 10.6786 11.6891 10.2975 11.8351C9.91639 11.981 9.72566 12.4082 9.87152 12.7892L10.9483 15.6029C11.0579 15.8892 11.3326 16.0777 11.6383 16.0777C11.6425 16.0777 11.6469 16.0776 11.6511 16.0776C11.9619 16.0722 12.2361 15.8729 12.3371 15.579L12.6428 14.6897L12.9923 15.6029C13.1019 15.8892 13.3766 16.0777 13.6822 16.0777C13.6865 16.0777 13.6908 16.0776 13.695 16.0776C14.0058 16.0722 14.28 15.8729 14.381 15.579L15.3482 12.7653C15.481 12.3794 15.2757 11.959 14.8898 11.8263Z" fill="white"/>
<path d="M21.6771 11.8263C21.2913 11.6938 20.8708 11.8991 20.7382 12.2849L20.4325 13.1742L20.083 12.261C19.9155 11.7302 18.9826 11.5355 18.6942 12.2849L18.3885 13.1743L18.039 12.261C17.8931 11.8799 17.466 11.6891 17.0848 11.8351C16.7037 11.981 16.513 12.4082 16.6589 12.7892L17.7357 15.6029C17.8453 15.8892 18.1201 16.0777 18.4257 16.0777C18.4299 16.0777 18.4343 16.0776 18.4385 16.0776C18.7493 16.0722 19.0235 15.8729 19.1245 15.579L19.4302 14.6897L19.7797 15.6029C19.8893 15.8892 20.164 16.0777 20.4696 16.0777C20.4739 16.0777 20.4782 16.0776 20.4824 16.0776C20.7932 16.0722 21.0674 15.8729 21.1685 15.579L22.1356 12.7653C22.2683 12.3794 22.063 11.959 21.6771 11.8263V11.8263Z" fill="white"/>
</svg>
