<svg width="21" height="21" viewBox="0 0 21 21" fill="none" xmlns="http://www.w3.org/2000/svg">
<path d="M10.5 0C4.725 0 0 4.725 0 10.5C0 16.275 4.725 21 10.5 21C16.275 21 21 16.275 21 10.5C21 4.725 16.275 0 10.5 0ZM10.5 2.33333C12.3083 2.33333 14 2.975 15.4 3.96667L3.96667 15.4C2.975 14 2.33333 12.3083 2.33333 10.5C2.33333 6.00833 6.00833 2.33333 10.5 2.33333ZM10.5 18.6667C8.69167 18.6667 7 18.025 5.6 17.0333L17.0333 5.6C18.025 7 18.6667 8.69167 18.6667 10.5C18.6667 14.9917 14.9917 18.6667 10.5 18.6667Z" fill="#cb5757"/>
</svg>
