<svg width="20" height="21" viewBox="0 0 20 21" fill="none" xmlns="http://www.w3.org/2000/svg">
<path d="M3.463 2.55466C5.27756 0.903703 7.59899 -0.00350685 10 1.01878e-05C15.523 1.01878e-05 20 4.70086 20 10.5C20 12.7428 19.33 14.8218 18.19 16.527L15 10.5H18C18.0001 8.85321 17.5392 7.2427 16.6747 5.86872C15.8101 4.49475 14.5799 3.41792 13.1372 2.77214C11.6944 2.12635 10.1027 1.9401 8.55996 2.23653C7.0172 2.53296 5.59145 3.299 4.46 4.43941L3.463 2.55466ZM16.537 18.4453C14.7224 20.0963 12.401 21.0035 10 21C4.477 21 0 16.2991 0 10.5C0 8.2572 0.67 6.1782 1.81 4.47301L5 10.5H2C1.99987 12.1468 2.46075 13.7573 3.32534 15.1313C4.18992 16.5053 5.42007 17.5821 6.86282 18.2279C8.30557 18.8736 9.89729 19.0599 11.44 18.7635C12.9828 18.467 14.4085 17.701 15.54 16.5606L16.537 18.4453Z" fill="#618ABA"/>
</svg>
