<svg width="20" height="20" viewBox="0 0 20 20" fill="none" xmlns="http://www.w3.org/2000/svg">
<path d="M20 18.9563L14.4114 13.3381C15.7474 11.7261 16.4112 9.66134 16.2647 7.57276C16.1182 5.48417 15.1729 3.53228 13.6249 2.12248C12.077 0.712692 10.0455 -0.0466356 7.95233 0.00221935C5.85919 0.0510743 3.86531 0.904356 2.38483 2.38483C0.904356 3.86531 0.0510743 5.85919 0.00221935 7.95233C-0.0466356 10.0455 0.712692 12.077 2.12248 13.6249C3.53228 15.1729 5.48417 16.1182 7.57276 16.2647C9.66134 16.4112 11.7261 15.7474 13.3381 14.4114L18.9563 20L20 18.9563ZM1.49472 8.15662C1.49472 6.83902 1.88543 5.55101 2.61745 4.45547C3.34947 3.35992 4.38992 2.50605 5.60722 2.00183C6.82452 1.4976 8.16401 1.36568 9.45629 1.62273C10.7486 1.87978 11.9356 2.51426 12.8673 3.44595C13.799 4.37763 14.4335 5.56467 14.6905 6.85695C14.9476 8.14923 14.8156 9.48872 14.3114 10.706C13.8072 11.9233 12.9533 12.9638 11.8578 13.6958C10.7622 14.4278 9.47422 14.8185 8.15662 14.8185C6.38977 14.8185 4.69529 14.1166 3.44595 12.8673C2.1966 11.6179 1.49472 9.92347 1.49472 8.15662Z" fill="#505050"/>
</svg>
