<svg width="33" height="25" viewBox="0 0 33 25" fill="none" xmlns="http://www.w3.org/2000/svg">
<path d="M31.9603 23L17.2337 0.5C17.0142 0.165625 16.6355 0 16.2531 0C15.8708 0 15.4885 0.165625 15.2725 0.5L0.545972 23C0.110547 23.6688 0.655713 24.5 1.52656 24.5H30.9797C31.8505 24.5 32.3957 23.6688 31.9603 23ZM15.1203 9.25C15.1203 9.1125 15.2478 9 15.4035 9H17.1027C17.2585 9 17.3859 9.1125 17.3859 9.25V15C17.3859 15.1375 17.2585 15.25 17.1027 15.25H15.4035C15.2478 15.25 15.1203 15.1375 15.1203 15V9.25ZM16.2531 20.25C15.8085 20.242 15.3851 20.0804 15.0738 19.8C14.7626 19.5196 14.5882 19.1426 14.5882 18.75C14.5882 18.3574 14.7626 17.9804 15.0738 17.7C15.3851 17.4196 15.8085 17.258 16.2531 17.25C16.6978 17.258 17.1212 17.4196 17.4324 17.7C17.7437 17.9804 17.918 18.3574 17.918 18.75C17.918 19.1426 17.7437 19.5196 17.4324 19.8C17.1212 20.0804 16.6978 20.242 16.2531 20.25Z" fill="#505050"/>
</svg>
