<svg width="18" height="18" viewBox="0 0 18 18" fill="none" xmlns="http://www.w3.org/2000/svg">
<path d="M7.94531 12.375H0.703125C0.314789 12.375 0 12.6898 0 13.0781V17.2969C0 17.6852 0.314789 18 0.703125 18H7.94531C8.33365 18 8.64844 17.6852 8.64844 17.2969V13.0781C8.64844 12.6898 8.33365 12.375 7.94531 12.375ZM7.24219 16.5938H1.40625V13.7812H7.24219V16.5938Z" fill="#506D90"/>
<path d="M7.94531 0H0.703125C0.314789 0 0 0.314789 0 0.703125V10.9688C0 11.3571 0.314789 11.6719 0.703125 11.6719H7.94531C8.33365 11.6719 8.64844 11.3571 8.64844 10.9688V0.703125C8.64844 0.314789 8.33365 0 7.94531 0ZM7.24219 10.2656H1.40625V1.40625H7.24219V10.2656Z" fill="#506D90"/>
<path d="M17.2969 0H10.0547C9.66635 0 9.35156 0.314789 9.35156 0.703125V4.92188C9.35156 5.31021 9.66635 5.625 10.0547 5.625H17.2969C17.6852 5.625 18 5.31021 18 4.92188V0.703125C18 0.314789 17.6852 0 17.2969 0ZM16.5938 4.21875H10.7578V1.40625H16.5938V4.21875Z" fill="#506D90"/>
<path d="M17.2969 6.32812H10.0547C9.66635 6.32812 9.35156 6.64291 9.35156 7.03125V17.2969C9.35156 17.6852 9.66635 18 10.0547 18H17.2969C17.6852 18 18 17.6852 18 17.2969V7.03125C18 6.64291 17.6852 6.32812 17.2969 6.32812ZM16.5938 16.5938H10.7578V7.73438H16.5938V16.5938Z" fill="#506D90"/>
</svg>
