<?xml version="1.0" encoding="utf-8"?>
<!-- Generator: Adobe Illustrator 24.2.3, SVG Export Plug-In . SVG Version: 6.00 Build 0)  -->
<svg version="1.1" id="Layer_2" xmlns="http://www.w3.org/2000/svg" xmlns:xlink="http://www.w3.org/1999/xlink" x="0px" y="0px"
	 viewBox="0 0 50 50" style="enable-background:new 0 0 50 50;" xml:space="preserve">
<style type="text/css">
	.st0{fill:#4B7288;}
	.st1{fill:#FFFFFF;}
</style>
<path class="st0" d="M40,50H10C4.5,50,0,45.5,0,40V10C0,4.5,4.5,0,10,0h30c5.5,0,10,4.5,10,10v30C50,45.5,45.5,50,40,50z"/>
<path class="st1" d="M17.7,7.7l-3.6,1.7c0,0,1,9.1-8.7,15.4v3.9C5.4,28.7,18.3,23.2,17.7,7.7z"/>
<path class="st1" d="M32.2,7.7l3.6,1.7c0,0-1,9.1,8.7,15.4v3.9C44.5,28.7,31.6,23.2,32.2,7.7z"/>
<path class="st1" d="M37.2,41.5l-3.3,2.2c0,0-7.3-5.4-17.6-0.3l-3.4-2C12.8,41.4,24.1,33.1,37.2,41.5z"/>
<path class="st1" d="M28.6,6.7c-3.8-0.7-7.2,0-7.2,0c1.5,19.3-15,25.9-15,25.9c1.5,3.9,3.8,6.1,3.8,6.1c15.3-10.4,29.8,0,29.8,0
	c2.4-2.1,3.5-6.1,3.5-6.1C26.1,24,28.6,6.7,28.6,6.7z M22.7,27.3c1.5-1.6,2-3.7,2-3.7c0.3,1.5,2.2,3.7,2.2,3.7H22.7z"/>
</svg>
