<svg width="18" height="18" viewBox="0 0 18 18" fill="none" xmlns="http://www.w3.org/2000/svg">
<path d="M17.2969 9.42188H11.1094C10.721 9.42188 10.4062 9.73666 10.4062 10.125C10.4062 10.9004 9.77541 11.5312 9 11.5312C8.22459 11.5312 7.59375 10.9004 7.59375 10.125C7.59375 9.73666 7.27896 9.42188 6.89062 9.42188H0.703125C0.314789 9.42188 0 9.73666 0 10.125V16.3125C0 16.7008 0.314789 17.0156 0.703125 17.0156H17.2969C17.6852 17.0156 18 16.7008 18 16.3125V10.125C18 9.73666 17.6852 9.42188 17.2969 9.42188ZM16.5938 15.6094H1.40625V10.8281H6.27648C6.58948 12.0398 7.69187 12.9375 9 12.9375C10.3081 12.9375 11.4105 12.0398 11.7235 10.8281H16.5938V15.6094Z" fill="#506D90"/>
<path d="M4.85156 2.39062H13.1484C13.5368 2.39062 13.8516 2.07584 13.8516 1.6875C13.8516 1.29916 13.5368 0.984375 13.1484 0.984375H4.85156C4.46323 0.984375 4.14844 1.29916 4.14844 1.6875C4.14844 2.07584 4.46323 2.39062 4.85156 2.39062Z" fill="#506D90"/>
<path d="M4.85156 4.85156H13.1484C13.5368 4.85156 13.8516 4.53677 13.8516 4.14844C13.8516 3.7601 13.5368 3.44531 13.1484 3.44531H4.85156C4.46323 3.44531 4.14844 3.7601 4.14844 4.14844C4.14844 4.53677 4.46323 4.85156 4.85156 4.85156Z" fill="#506D90"/>
<path d="M4.85156 7.3125H13.1484C13.5368 7.3125 13.8516 6.99771 13.8516 6.60938C13.8516 6.22104 13.5368 5.90625 13.1484 5.90625H4.85156C4.46323 5.90625 4.14844 6.22104 4.14844 6.60938C4.14844 6.99771 4.46323 7.3125 4.85156 7.3125Z" fill="#506D90"/>
</svg>
