<svg width="18" height="15" viewBox="0 0 18 15" fill="none" xmlns="http://www.w3.org/2000/svg">
<path d="M4.07813 7.4785C4.07813 6.16295 4.59007 4.92616 5.51971 3.99596C5.79431 3.72118 5.79431 3.27568 5.51971 3.00093C5.24514 2.72612 4.79995 2.72612 4.52535 3.0009C3.33011 4.19691 2.67188 5.78706 2.67188 7.4785C2.67188 9.16994 3.33011 10.7601 4.52535 11.9561C4.79992 12.2308 5.2451 12.2308 5.51971 11.9561C5.79431 11.6813 5.79431 11.2358 5.51971 10.961C4.59007 10.0308 4.07813 8.79405 4.07813 7.4785Z" fill="#506D90"/>
<path d="M1.40625 7.47875C1.40625 5.44904 2.19614 3.54083 3.63037 2.10565C3.90498 1.83087 3.90498 1.38537 3.63037 1.11059C3.35577 0.835839 2.91059 0.835839 2.63601 1.11059C0.93614 2.81162 0 5.07319 0 7.47875C0 9.88432 0.93614 12.1459 2.63605 13.8469C2.91059 14.1216 3.3558 14.1217 3.63041 13.8469C3.90501 13.5721 3.90501 13.1266 3.63041 12.8519C2.19614 11.4167 1.40625 9.50846 1.40625 7.47875Z" fill="#506D90"/>
<path d="M9 3.81985C6.98393 3.81985 5.34375 5.46112 5.34375 7.47849C5.34375 9.49586 6.98393 11.1371 9 11.1371C11.0161 11.1371 12.6562 9.49586 12.6562 7.47849C12.6562 5.46112 11.0161 3.81985 9 3.81985ZM9 9.72997C7.75933 9.72997 6.75 8.71997 6.75 7.47849C6.75 6.23702 7.75933 5.22702 9 5.22702C10.2407 5.22702 11.25 6.23702 11.25 7.47849C11.25 8.71997 10.2407 9.72997 9 9.72997Z" fill="#506D90"/>
<path d="M15.3639 1.11033C15.0893 0.835553 14.6442 0.835589 14.3696 1.11037C14.095 1.38515 14.095 1.83062 14.3696 2.1054C15.8039 3.54058 16.5938 5.44879 16.5938 7.4785C16.5938 9.50821 15.8039 11.4164 14.3696 12.8516C14.095 13.1264 14.095 13.5719 14.3696 13.8466C14.6441 14.1213 15.0893 14.1215 15.364 13.8467C17.0638 12.1456 18 9.88407 18 7.4785C18 5.07294 17.0638 2.81137 15.3639 1.11033Z" fill="#506D90"/>
<path d="M13.4746 3.00088C13.2 2.7261 12.7549 2.72614 12.4802 3.00092C12.2056 3.2757 12.2057 3.72116 12.4803 3.99595C13.4099 4.92615 13.9219 6.16294 13.9219 7.47849C13.9219 8.79404 13.4099 10.0308 12.4803 10.961C12.2057 11.2358 12.2056 11.6813 12.4802 11.9561C12.7547 12.2308 13.1999 12.2309 13.4746 11.9561C14.6699 10.7601 15.3281 9.16993 15.3281 7.47849C15.3281 5.78705 14.6699 4.1969 13.4746 3.00088Z" fill="#506D90"/>
</svg>
