<?xml version="1.0"?>
<svg xmlns="http://www.w3.org/2000/svg" height="512px" viewBox="0 0 512 512" width="512px" class=""><g><path d="m304 512h-96c-17.679688 0-32-14.320312-32-32v-144h-144c-17.679688 0-32-14.320312-32-32v-96c0-17.679688 14.320312-32 32-32h144v-144c0-17.679688 14.320312-32 32-32h96c17.679688 0 32 14.320312 32 32v144h144c17.679688 0 32 14.320312 32 32v96c0 17.679688-14.320312 32-32 32h-144v144c0 17.679688-14.320312 32-32 32zm0 0" fill="#FFFFFF" data-original="#48C8EF" class="active-path" data-old_color="#48c8ef"/></g> </svg>
