<svg width="35" height="35" viewBox="0 0 35 35" fill="none" xmlns="http://www.w3.org/2000/svg">
<path d="M29.1666 11.6667H25.0687C24.411 10.5259 23.5036 9.54869 22.4146 8.80833L24.7916 6.43125L22.7354 4.375L19.5708 7.53958C18.9 7.37917 18.2146 7.29167 17.5 7.29167C16.7854 7.29167 16.1 7.37917 15.4437 7.53958L12.2646 4.375L10.2083 6.43125L12.5708 8.80833C11.4916 9.55208 10.5875 10.5292 9.93123 11.6667H5.83331V14.5833H8.88123C8.80831 15.0646 8.74998 15.5458 8.74998 16.0417V17.5H5.83331V20.4167H8.74998V21.875C8.74998 22.3708 8.80831 22.8521 8.88123 23.3333H5.83331V26.25H9.93123C11.4479 28.8604 14.2625 30.625 17.5 30.625C20.7375 30.625 23.5521 28.8604 25.0687 26.25H29.1666V23.3333H26.1187C26.1916 22.8521 26.25 22.3708 26.25 21.875V20.4167H29.1666V17.5H26.25V16.0417C26.25 15.5458 26.1916 15.0646 26.1187 14.5833H29.1666V11.6667ZM20.4166 23.3333H14.5833V20.4167H20.4166V23.3333ZM20.4166 17.5H14.5833V14.5833H20.4166V17.5Z" fill="#FF6A6A"/>
</svg>
