<svg height="512pt" viewBox="-11 0 512 512.00063" width="512pt" xmlns="http://www.w3.org/2000/svg"><path d="m280 512c-17.25 0-31.285156-14.035156-31.285156-31.285156 0-4.144532 3.359375-7.5 7.5-7.5 4.144531 0 7.5 3.355468 7.5 7.5 0 8.980468 7.308594 16.285156 16.285156 16.285156 4.144531 0 7.5 3.359375 7.5 7.5 0 4.144531-3.355469 7.5-7.5 7.5zm0 0" fill="#197ae5"/><path d="m210.191406 512c-4.140625 0-7.5-3.355469-7.5-7.5 0-4.140625 3.359375-7.5 7.5-7.5 8.980469 0 16.285156-7.304688 16.285156-16.285156 0-4.144532 3.359376-7.5 7.5-7.5 4.140626 0 7.5 3.355468 7.5 7.5 0 17.25-14.035156 31.285156-31.285156 31.285156zm0 0" fill="#197ae5"/><g fill="#2b597f"><path d="m329.214844 216.019531h-168.238282v-36.816406c0-46.460937 37.660157-84.121094 84.121094-84.121094 46.457032 0 84.117188 37.660157 84.117188 84.121094zm0 0"/><path d="m476.539062 315.941406h-94.335937c-7.539063 0-13.652344-6.113281-13.652344-13.65625 0-7.539062 6.113281-13.652344 13.652344-13.652344h94.335937c7.539063 0 13.652344 6.113282 13.652344 13.652344 0 7.542969-6.113281 13.65625-13.652344 13.65625zm0 0"/><path d="m441.046875 503.910156c-7.542969 0-13.65625-6.113281-13.65625-13.652344v-47.550781c0-31.9375-25.984375-57.921875-57.921875-57.921875h-24.402344c-7.542968 0-13.652344-6.113281-13.652344-13.65625 0-7.539062 6.109376-13.652344 13.652344-13.652344h24.402344c46.996094 0 85.230469 38.234376 85.230469 85.230469v47.550781c0 7.539063-6.113281 13.652344-13.652344 13.652344zm0 0"/><path d="m353.039062 241.519531h-24.402343c-7.539063 0-13.652344-6.113281-13.652344-13.65625 0-7.539062 6.113281-13.652343 13.652344-13.652343h24.402343c31.9375 0 57.925782-25.984376 57.925782-57.925782v-47.546875c0-7.542969 6.109375-13.65625 13.652344-13.65625 7.539062 0 13.652343 6.113281 13.652343 13.65625v47.546875c0 46.996094-38.234375 85.234375-85.230469 85.234375zm0 0"/><path d="m13.652344 315.941406h94.335937c7.539063 0 13.652344-6.113281 13.652344-13.65625 0-7.539062-6.113281-13.652344-13.652344-13.652344h-94.335937c-7.539063 0-13.652344 6.113282-13.652344 13.652344 0 7.542969 6.113281 13.65625 13.652344 13.65625zm0 0"/><path d="m49.148438 503.910156c7.539062 0 13.652343-6.113281 13.652343-13.652344v-47.550781c0-31.9375 25.984375-57.921875 57.925781-57.921875h24.398438c7.542969 0 13.65625-6.113281 13.65625-13.65625 0-7.539062-6.113281-13.652344-13.65625-13.652344h-24.398438c-47 0-85.234374 38.234376-85.234374 85.230469v47.550781c0 7.539063 6.113281 13.652344 13.65625 13.652344zm0 0"/><path d="m137.15625 241.519531h24.398438c7.542968 0 13.65625-6.113281 13.65625-13.65625 0-7.539062-6.113282-13.652343-13.65625-13.652343h-24.398438c-31.941406 0-57.925781-25.984376-57.925781-57.925782v-47.546875c0-7.542969-6.113281-13.65625-13.65625-13.65625-7.539063 0-13.652344 6.113281-13.652344 13.65625v47.546875c0 46.996094 38.234375 85.234375 85.234375 85.234375zm0 0"/></g><path d="m317.503906 199.121094v209.191406c0 10.367188-2.179687 20.230469-6.109375 29.136719-11.207031 25.480469-36.679687 43.261719-66.296875 43.261719-29.621094 0-55.089844-17.78125-66.300781-43.261719-3.929687-8.90625-6.109375-18.769531-6.109375-29.136719v-209.191406zm0 0" fill="#209ced"/><path d="m317.503906 199.121094v209.191406c0 10.367188-2.179687 20.230469-6.109375 29.136719-6.238281 1.382812-12.597656 2.300781-19.050781 2.761719-.519531.039062-1.039062.050781-1.546875.050781-10.660156 0-19.570313-7.621094-21.210937-18.109375l-24.488282-157.332032-24.492187 157.332032c-1.640625 10.5-10.550781 18.109375-21.210938 18.109375-.507812 0-1.027343-.011719-1.546875-.050781-6.453125-.460938-12.8125-1.378907-19.050781-2.761719-3.929687-8.90625-6.109375-18.769531-6.109375-29.136719v-209.191406zm0 0" fill="#197ae5"/><path d="m317.503906 273.742188v67.28125c0 32.109374-20.898437 59.335937-49.839844 68.808593-7.097656 2.339844-14.6875 3.597657-22.566406 3.597657-7.882812 0-15.472656-1.257813-22.570312-3.597657-10.921875-3.570312-20.691406-9.671875-28.632813-17.609375-13.097656-13.101562-21.207031-31.199218-21.207031-51.199218v-67.28125c0 35.730468 25.878906 65.410156 59.917969 71.328124 4.058593.703126 8.230469 1.070313 12.492187 1.070313 4.257813 0 8.429688-.367187 12.488282-1.070313 14.988281-2.609374 28.398437-9.820312 38.710937-20.128906 13.097656-13.097656 21.207031-31.199218 21.207031-51.199218zm0 0" fill="#f6cb43"/><path d="m232.605469 345.070312-10.078125 64.761719c-10.921875-3.570312-20.691406-9.671875-28.632813-17.609375-13.097656-13.101562-21.207031-31.199218-21.207031-51.199218v-67.28125c0 35.730468 25.878906 65.410156 59.917969 71.328124zm0 0" fill="#fab03c"/><path d="m317.503906 273.742188v67.28125c0 32.109374-20.898437 59.335937-49.839844 68.808593l-10.078124-64.761719c14.988281-2.609374 28.398437-9.820312 38.710937-20.128906 13.097656-13.097656 21.207031-31.199218 21.207031-51.199218zm0 0" fill="#fab03c"/><path d="m245.097656 186.808594 36.347656 233.496094c.757813 4.863281 5.132813 8.289062 10.039063 7.9375 62.667969-4.484376 112.117187-56.75 112.117187-120.558594v-85.472656c0-19.550782-15.847656-35.402344-35.398437-35.402344zm0 0" fill="#6beafd"/><path d="m403.597656 222.207031v85.46875c0 63.820313-49.445312 116.078125-112.109375 120.5625-3.765625.269531-7.207031-1.683593-8.957031-4.792969 49.757812-14.953124 86.015625-61.121093 86.015625-115.769531v-85.46875c0-19.550781-15.84375-35.394531-35.398437-35.394531h35.054687c19.554687 0 35.394531 15.84375 35.394531 35.394531zm0 0" fill="#2ee0fd"/><path d="m245.097656 186.808594-36.351562 233.496094c-.757813 4.863281-5.132813 8.289062-10.039063 7.9375-62.667969-4.484376-112.117187-56.75-112.117187-120.558594v-85.472656c0-19.550782 15.847656-35.402344 35.398437-35.402344zm0 0" fill="#6beafd"/><path d="m245.097656 186.8125-36.351562 233.488281c-.753906 4.859375-5.128906 8.292969-10.039063 7.9375-8.894531-.632812-17.519531-2.230469-25.777343-4.6875.570312-.976562.964843-2.070312 1.148437-3.25l36.351563-233.488281zm0 0" fill="#2ee0fd"/><path d="m284.589844 146.070312c-3.941406 0-7.25-3.074218-7.476563-7.0625-.0625-1.042968-1.375-25.898437 8.066407-55.355468 12.636718-39.425782 38.632812-68.160156 75.179687-83.089844 3.835937-1.570312 8.214844.269531 9.78125 4.101562 1.566406 3.835938-.269531 8.214844-4.105469 9.78125-32.621094 13.328126-54.964844 37.992188-66.417968 73.3125-8.714844 26.871094-7.542969 50.160157-7.53125 50.390626.230468 4.132812-2.929688 7.675781-7.0625 7.910156-.144532.007812-.289063.011718-.433594.011718zm0 0" fill="#f6cb43"/><path d="m205.601562 146.074219c-.148437 0-.292968-.003907-.441406-.011719-4.132812-.238281-7.289062-3.78125-7.054687-7.914062.011719-.230469 1.183593-23.519532-7.53125-50.390626-11.449219-35.320312-33.796875-59.984374-66.417969-73.3125-3.832031-1.566406-5.671875-5.945312-4.105469-9.78125 1.566407-3.832031 5.945313-5.671874 9.78125-4.101562 36.546875 14.929688 62.542969 43.664062 75.179688 83.089844 9.441406 29.457031 8.128906 54.3125 8.066406 55.355468-.226563 3.988282-3.535156 7.066407-7.476563 7.066407zm0 0" fill="#f6cb43"/><path d="m126.996094 330.90625c-1.917969 0-3.839844-.734375-5.304688-2.199219-2.929687-2.929687-2.929687-7.675781 0-10.605469l63.183594-63.183593c2.929688-2.925781 7.675781-2.925781 10.605469 0 2.929687 2.929687 2.929687 7.679687 0 10.609375l-63.183594 63.179687c-1.460937 1.464844-3.382813 2.199219-5.300781 2.199219zm0 0" fill="#b4f5fe"/><path d="m166.917969 342.75c-1.917969 0-3.839844-.730469-5.300781-2.195312-2.929688-2.929688-2.929688-7.675782 0-10.605469l23.257812-23.257813c2.929688-2.929687 7.675781-2.929687 10.605469 0 2.929687 2.929688 2.929687 7.675782 0 10.605469l-23.257813 23.257813c-1.464844 1.464843-3.386718 2.195312-5.304687 2.195312zm0 0" fill="#b4f5fe"/><path d="m312.175781 275.183594c-1.917969 0-3.839843-.730469-5.304687-2.195313-2.925782-2.929687-2.925782-7.675781 0-10.605469l23.371094-23.367187c2.925781-2.929687 7.675781-2.929687 10.605468 0 2.925782 2.929687 2.925782 7.675781 0 10.605469l-23.371094 23.367187c-1.460937 1.464844-3.382812 2.195313-5.300781 2.195313zm0 0" fill="#b4f5fe"/><path d="m305.820312 331.292969c-1.917968 0-3.839843-.730469-5.304687-2.195313-2.929687-2.929687-2.929687-7.679687 0-10.609375l63.957031-63.957031c2.929688-2.925781 7.679688-2.925781 10.609375 0 2.925781 2.929688 2.925781 7.679688 0 10.609375l-63.960937 63.957031c-1.460938 1.460938-3.382813 2.195313-5.300782 2.195313zm0 0" fill="#b4f5fe"/></svg>