<svg width="29" height="32" viewBox="0 0 29 32" fill="none" xmlns="http://www.w3.org/2000/svg">
<path d="M25.401 0C27.276 0 28.786 1.516 28.875 3.302V32L25.307 28.969L23.349 27.188L21.208 25.323L22.099 28.261H3.385C1.515 28.261 0 26.844 0 24.959V3.308C0 1.522 1.516 0.006 3.391 0.006H25.391L25.401 0ZM17.244 7.578H17.202L16.931 7.844C19.697 8.646 21.035 9.896 21.035 9.896C19.254 9.005 17.644 8.557 16.04 8.375C14.884 8.198 13.722 8.292 12.743 8.375H12.472C11.847 8.375 10.514 8.646 8.727 9.359C8.107 9.63 7.748 9.807 7.748 9.807C7.748 9.807 9.081 8.468 12.029 7.755L11.847 7.578C11.847 7.578 9.618 7.489 7.212 9.271C7.212 9.271 4.806 13.464 4.806 18.63C4.806 18.63 6.139 20.948 9.796 21.036C9.796 21.036 10.332 20.328 10.869 19.703C8.817 19.078 8.015 17.828 8.015 17.828C8.015 17.828 8.197 17.917 8.463 18.094H8.541C8.583 18.094 8.604 18.115 8.624 18.136V18.146C8.645 18.167 8.666 18.182 8.702 18.182C9.145 18.364 9.582 18.541 9.942 18.718C10.567 18.984 11.364 19.254 12.343 19.432C13.583 19.614 15.004 19.698 16.624 19.432C17.421 19.25 18.223 19.078 19.025 18.718C19.541 18.452 20.181 18.187 20.884 17.734C20.884 17.734 20.087 18.984 17.946 19.609C18.384 20.229 19.003 20.942 19.003 20.942C22.664 20.859 24.086 18.541 24.164 18.64C24.164 13.479 21.742 9.281 21.742 9.281C19.565 7.661 17.523 7.599 17.164 7.599L17.237 7.573L17.244 7.578ZM17.468 13.464C18.406 13.464 19.161 14.261 19.161 15.24C19.161 16.23 18.401 17.026 17.468 17.026C16.53 17.026 15.775 16.229 15.775 15.25C15.775 14.26 16.535 13.464 17.468 13.464ZM11.411 13.464C12.343 13.464 13.099 14.261 13.099 15.24C13.099 16.23 12.339 17.026 11.406 17.026C10.468 17.026 9.708 16.229 9.708 15.25C9.708 14.26 10.468 13.464 11.406 13.464H11.411Z" fill="#009DFF"/>
</svg>
