<?xml version="1.0" encoding="utf-8"?>
<!-- Generator: Adobe Illustrator 24.0.0, SVG Export Plug-In . SVG Version: 6.00 Build 0)  -->
<svg version="1.1" id="Layer_1" xmlns="http://www.w3.org/2000/svg" xmlns:xlink="http://www.w3.org/1999/xlink" x="0px" y="0px"
	 viewBox="0 0 512 512" style="enable-background:new 0 0 512 512;" xml:space="preserve">
<style type="text/css">
	.st0{fill:#033E63;}
	.st1{fill:#001827;}
	.st2{fill:#005488;}
	.st3{fill:#078FE4;}
	.st4{fill:none;}
	.st5{font-family:'Arial'; font-weight: bold;}
	.st6{font-size:50px;}
</style>
<g>
	<path class="st0" d="M440.9,387.7L256,489.2L71.1,387.7V184.6L256,83.1l184.9,101.5V387.7z"/>
	<path class="st1" d="M71.1,184.6L71.1,184.6L256,286.2l184.9-101.5l0,0L256,83.1L71.1,184.6z"/>
	<path class="st2" d="M71.1,184.7v203L256,489.2l0.1-0.1v-203L71.1,184.7L71.1,184.7z"/>
	<g>
		<path class="st3" d="M440.9,184.6l61.1,61.1L317.1,347.2l-61.1-61L440.9,184.6z"/>
		<path class="st3" d="M71.1,184.6L10,245.7l184.9,101.5l61.1-61.1L71.1,184.6z"/>
		<path class="st3" d="M440.9,184.6l61.1-61.1L317.1,22L256,83.1L440.9,184.6z"/>
		<path class="st3" d="M71.1,184.6L10,123.5L194.9,22L256,83.1L71.1,184.6z"/>
	</g>
	<path class="st1" d="M455.1,184.6l54-54c2.2-2.2,3.3-5.4,2.8-8.5c-0.4-3.1-2.3-5.8-5.1-7.4l-64.9-35.6c-4.8-2.7-10.9-0.9-13.6,4
		c-2.7,4.8-0.9,10.9,4,13.6l53.2,29.2l-46.3,46.3L272.5,80.7l46.3-46.3l46.8,25.7c4.8,2.7,10.9,0.9,13.6-4c2.7-4.8,0.9-10.9-4-13.6
		l-53.4-29.3c-3.9-2.1-8.7-1.4-11.9,1.7l-54,54l-54-54c-3.1-3.1-8-3.8-11.9-1.7L5.2,114.8c-2.8,1.5-4.6,4.2-5.1,7.4
		c-0.4,3.1,0.6,6.3,2.8,8.5l54,54l-54,54c-2.2,2.2-3.3,5.4-2.8,8.5c0.4,3.1,2.3,5.8,5.1,7.4l55.9,30.7v102.6c0,3.7,2,7,5.2,8.8
		L251.2,498c1.5,0.8,3.2,1.2,4.8,1.2s3.3-0.4,4.8-1.2l184.9-101.5c3.2-1.8,5.2-5.1,5.2-8.8V285.1l55.9-30.7c2.8-1.5,4.6-4.2,5.1-7.4
		c0.4-3.1-0.6-6.3-2.8-8.5L455.1,184.6z M256,274.7L91.8,184.6L256,94.5l164.2,90.1L256,274.7z M193.2,34.4l46.3,46.3L72.8,172.2
		l-46.3-46.3L193.2,34.4z M72.8,197l166.7,91.5l-46.3,46.3L26.5,243.3L72.8,197z M430.9,381.8L266,472.3V370.1c0-5.5-4.5-10-10-10
		s-10,4.5-10,10v102.2L81.1,381.8v-85.7l109,59.9c1.5,0.8,3.2,1.2,4.8,1.2c2.6,0,5.2-1,7.1-2.9l54-54l54,54c1.9,1.9,4.5,2.9,7.1,2.9
		c1.6,0,3.3-0.4,4.8-1.2l109-59.9V381.8z M318.8,334.8l-46.3-46.3L439.2,197l46.3,46.3L318.8,334.8z"/>
	<path class="st1" d="M404.8,80.2c2.6,0,5.2-1.1,7.1-2.9c1.9-1.9,2.9-4.4,2.9-7.1c0-2.6-1.1-5.2-2.9-7.1c-1.9-1.9-4.4-2.9-7.1-2.9
		c-2.6,0-5.2,1.1-7.1,2.9c-1.9,1.9-2.9,4.4-2.9,7.1c0,2.6,1.1,5.2,2.9,7.1C399.6,79.1,402.2,80.2,404.8,80.2z"/>
	<path class="st1" d="M256,326.9c-2.6,0-5.2,1.1-7.1,2.9c-1.9,1.9-2.9,4.4-2.9,7.1c0,2.6,1.1,5.2,2.9,7.1c1.9,1.9,4.4,2.9,7.1,2.9
		s5.2-1.1,7.1-2.9c1.9-1.9,2.9-4.4,2.9-7.1c0-2.6-1.1-5.2-2.9-7.1C261.2,328,258.6,326.9,256,326.9z"/>
</g>
<rect x="163.6" y="170.5" class="st4" width="189" height="53"/>
<text transform="matrix(1 0 0 1 168.0067 205.6444)" class="st2 st5 st6">EMPTY</text>
</svg>
