<?xml version="1.0" encoding="utf-8"?>
<!-- Generator: Adobe Illustrator 24.0.0, SVG Export Plug-In . SVG Version: 6.00 Build 0)  -->
<svg version="1.1" id="Layer_1" xmlns="http://www.w3.org/2000/svg" xmlns:xlink="http://www.w3.org/1999/xlink" x="0px" y="0px"
	 viewBox="0 0 800 800" style="enable-background:new 0 0 800 800;" xml:space="preserve">
<style type="text/css">
	.st0{fill:#033E63;}
	.st1{fill:#0671B3;}
	.st2{fill:#A00000;}
	.st3{fill:#06629B;}
	.st4{fill:#A06800;}
	.st5{fill:#FF2F52;}
	.st6{fill:none;}
	.st7{fill:#022D47;}
	.st8{font-family:'BerlinSansFBDemi-Bold';}
	.st9{font-size:72px;}
	.st10{fill:#FFFFFF;}
	.st11{font-family:'CourierNewPSMT';}
	.st12{font-size:48px;}
	.st13{font-size:21px;}
</style>
<path class="st0" d="M588.8,206.1h-400v0c0-33.1,26.9-60,60-60h280C561.9,146.1,588.8,172.9,588.8,206.1L588.8,206.1z"/>
<rect x="188.8" y="206.1" class="st1" width="400" height="200"/>
<path class="st1" d="M528.8,466.1h-280c-33.1,0-60-26.9-60-60v0h400v0C588.8,439.2,561.9,466.1,528.8,466.1z"/>
<circle class="st2" cx="533.3" cy="176.1" r="10.7"/>
<circle class="st3" cx="499.8" cy="176.1" r="10.7"/>
<circle class="st4" cx="468.3" cy="176.1" r="10.7"/>
<rect x="238.8" y="246.2" class="st5" width="300" height="160"/>
<rect x="238.8" y="263.3" class="st6" width="300" height="68.1"/>
<text transform="matrix(1 0 0 1 293.2031 314.0947)" class="st7 st8 st9">X __ X</text>
<rect x="238.8" y="340.9" class="st6" width="300" height="35.4"/>
<text transform="matrix(1 0 0 1 316.7461 370.3637)" class="st10 st11 st12">ERROR</text>
<rect x="238.8" y="382.6" class="st6" width="300" height="17.4"/>
<text transform="matrix(1 0 0 1 287.9417 395.463)" class="st10 st11 st13">CTRL + SHIFT + I</text>
</svg>
