<?xml version="1.0"?>
<svg xmlns="http://www.w3.org/2000/svg" xmlns:xlink="http://www.w3.org/1999/xlink" version="1.1" id="Capa_1" x="0px" y="0px" viewBox="0 0 470.538 470.538" style="enable-background:new 0 0 470.538 470.538;" xml:space="preserve" width="512px" height="512px" class=""><g><g>
	<g>
		<rect x="184.314" y="305.379" style="fill:#009DFF" width="101.878" height="128.731" data-original="#00ACEA" class="active-path" data-old_color="#00ACEA"/>
		<g>
			<polygon style="fill:#0671B3" points="234.992,94.832 386.502,223.876 385.457,224.921 385.457,433.901 286.192,433.901      286.192,305.379 184.314,305.379 184.314,433.901 85.049,433.901 85.049,224.921 84.004,223.876    " data-original="#00EFD1" class="" data-old_color="#00EFD1"/>
			<polygon style="fill:#0671B3" points="369.261,47.811 369.261,144.464 366.126,148.121 319.628,108.415 320.673,106.848      320.673,47.811    " data-original="#00EFD1" class="" data-old_color="#00EFD1"/>
		</g>
	</g>
	<g>
		<path style="fill:#022D47" d="M414.714,258.358c-2.533,0.139-5.005-0.811-6.792-2.612L234.992,108.415L62.061,255.746    c-4.791,3.217-11.283,1.941-14.5-2.85c-2.672-3.979-2.294-9.265,0.916-12.823L228.2,86.472c3.984-3.14,9.6-3.14,13.584,0    l179.722,153.6c4.287,3.772,4.752,10.286,1.045,14.629C420.687,257.12,417.765,258.484,414.714,258.358z" data-original="#083863" class="" data-old_color="#083863"/>
		<path style="fill:#022D47" d="M386.502,214.472c-5.771,0-10.449,4.678-10.449,10.449v198.531h-78.367V305.379    c-0.416-6.358-5.196-11.572-11.494-12.539h-102.4c-6.298,0.967-11.077,6.181-11.494,12.539v118.073H93.93V224.921    c0-5.771-4.678-10.449-10.449-10.449c-5.771,0-10.449,4.678-10.449,10.449v208.98c0.542,5.937,5.533,10.474,11.494,10.449h300.931    c5.961,0.025,10.952-4.512,11.494-10.449v-208.98C396.951,219.151,392.273,214.472,386.502,214.472z M193.196,313.738h83.592    v109.714h-83.592V313.738z" data-original="#083863" class="" data-old_color="#083863"/>
		<path style="fill:#022D47" d="M465.914,219.697l-85.682-73.665l1.045-1.567V47.811c-0.766-6.112-5.86-10.763-12.016-10.971    h-48.588c-6.272,0.171-11.537,4.777-12.539,10.971v39.184l-67.396-58.514c-3.817-3.056-9.244-3.056-13.061,0L3.547,219.697    c-4.287,3.772-4.752,10.286-1.045,14.629c2.079,2.435,5.16,3.783,8.359,3.657c2.523,0.076,4.97-0.865,6.792-2.612L234.992,50.423    L452.33,235.37c3.865,4.285,10.472,4.626,14.758,0.76c4.285-3.865,4.626-10.472,0.76-14.758    C467.275,220.737,466.625,220.174,465.914,219.697z M329.032,57.738h31.347v70.531l-31.347-23.51V57.738z" data-original="#083863" class="" data-old_color="#083863"/>
	</g>
</g></g> </svg>
