<?xml version="1.0"?>
<svg xmlns="http://www.w3.org/2000/svg" height="512px" viewBox="0 0 56 56" width="512px"><g><g id="Page-1" fill="none" fill-rule="evenodd"><g id="001---Browser" fill="rgb(0,0,0)" fill-rule="nonzero"><path id="Shape" d="m38.789 26.269c.7329034 2.8543777 1.1302566 5.7845223 1.184 8.731h7.976c-.1680081-3.5109276-1.2654111-6.9142571-3.18-9.862-1.9732107.4765554-3.969042.8540279-5.98 1.131z" data-original="#000000" class="active-path" data-old_color="#000000" fill="#FFFFFF"/><path id="Shape" d="m38.789 45.731c2.010958.2769721 4.0067893.6544446 5.98 1.131 1.9145889-2.9477429 3.0119919-6.3510724 3.18-9.862h-7.976c-.0537434 2.9464777-.4510966 5.8766223-1.184 8.731z" data-original="#000000" class="active-path" data-old_color="#000000" fill="#FFFFFF"/><path id="Shape" d="m12.5 48.616c2.455651 3.0159236 5.7350226 5.2530116 9.439 6.439-1.8951303-2.1363095-3.309957-4.6542849-4.149-7.384-1.838.248-3.609.563-5.29.945z" data-original="#000000" class="active-path" data-old_color="#000000" fill="#FFFFFF"/><path id="Shape" d="m34.062 55.055c3.703614-1.1861612 6.9826182-3.4232355 9.438-6.439-1.682-.382-3.453-.7-5.29-.945-.8387466 2.7296293-2.2532285 5.2475981-4.148 7.384z" data-original="#000000" class="active-path" data-old_color="#000000" fill="#FFFFFF"/><path id="Shape" d="m21.938 16.945c-3.703614 1.1861612-6.9826182 3.4232355-9.438 6.439 1.682.382 3.453.7 5.29.945.8387466-2.7296293 2.2532285-5.2475981 4.148-7.384z" data-original="#000000" class="active-path" data-old_color="#000000" fill="#FFFFFF"/><path id="Shape" d="m29 47.014v8.886c2.913-.61 5.5-3.853 7.141-8.472-2.307-.247-4.699-.384-7.141-.414z" data-original="#000000" class="active-path" data-old_color="#000000" fill="#FFFFFF"/><path id="Shape" d="m29 45.014c2.656.032 5.259.185 7.762.462.7443823-2.7661088 1.1513397-5.6121244 1.212-8.476h-8.974z" data-original="#000000" class="active-path" data-old_color="#000000" fill="#FFFFFF"/><path id="Shape" d="m43.5 23.384c-2.455651-3.0159236-5.7350226-5.2530116-9.439-6.439 1.8951303 2.1363095 3.309957 4.6542849 4.149 7.384 1.838-.248 3.609-.563 5.29-.945z" data-original="#000000" class="active-path" data-old_color="#000000" fill="#FFFFFF"/><path id="Shape" d="m29 35h8.974c-.0606603-2.8638756-.4676177-5.7098912-1.212-8.476-2.5.277-5.106.43-7.762.462z" data-original="#000000" class="active-path" data-old_color="#000000" fill="#FFFFFF"/><path id="Shape" d="m29 16.105v8.881c2.442-.03 4.834-.167 7.141-.409-1.641-4.619-4.228-7.862-7.141-8.472z" data-original="#000000" class="active-path" data-old_color="#000000" fill="#FFFFFF"/><path id="Shape" d="m18.026 35h8.974v-8.014c-2.656-.032-5.259-.185-7.762-.462-.7443823 2.7661088-1.1513397 5.6121244-1.212 8.476z" data-original="#000000" class="active-path" data-old_color="#000000" fill="#FFFFFF"/><path id="Shape" d="m19.238 45.476c2.5-.277 5.106-.43 7.762-.462v-8.014h-8.974c.0606603 2.8638756.4676177 5.7098912 1.212 8.476z" data-original="#000000" class="active-path" data-old_color="#000000" fill="#FFFFFF"/><path id="Shape" d="m19.859 24.577c2.307.242 4.7.379 7.141.409v-8.881c-2.913.61-5.5 3.853-7.141 8.472z" data-original="#000000" class="active-path" data-old_color="#000000" fill="#FFFFFF"/><path id="Shape" d="m55 0h-54c-.55228475 0-1 .44771525-1 1v5h56v-5c0-.55228475-.4477153-1-1-1zm-52 4c-.55228475 0-1-.44771525-1-1s.44771525-1 1-1 1 .44771525 1 1-.44771525 1-1 1zm4 0c-.55228475 0-1-.44771525-1-1s.44771525-1 1-1 1 .44771525 1 1-.44771525 1-1 1zm4 0c-.5522847 0-1-.44771525-1-1s.4477153-1 1-1 1 .44771525 1 1-.4477153 1-1 1zm20 0h-6c-.5522847 0-1-.44771525-1-1s.4477153-1 1-1h6c.5522847 0 1 .44771525 1 1s-.4477153 1-1 1zm22 0h-11c-.5522847 0-1-.44771525-1-1s.4477153-1 1-1h11c.5522847 0 1 .44771525 1 1s-.4477153 1-1 1z" data-original="#000000" class="active-path" data-old_color="#000000" fill="#FFFFFF"/><path id="Shape" d="m16.027 37h-7.976c.16800814 3.5109276 1.26541108 6.9142571 3.18 9.862 1.9732107-.4765554 3.969042-.8540279 5.98-1.131-.7329034-2.8543777-1.1302566-5.7845223-1.184-8.731z" data-original="#000000" class="active-path" data-old_color="#000000" fill="#FFFFFF"/><path id="Shape" d="m8.051 35h7.976c.0537434-2.9464777.4510966-5.8766223 1.184-8.731-2.010958-.2769721-4.0067893-.6544446-5.98-1.131-1.91458892 2.9477429-3.01199186 6.3510724-3.18 9.862z" data-original="#000000" class="active-path" data-old_color="#000000" fill="#FFFFFF"/><path id="Shape" d="m27 55.9v-8.886c-2.442.03-4.834.167-7.141.409 1.641 4.619 4.228 7.862 7.141 8.477z" data-original="#000000" class="active-path" data-old_color="#000000" fill="#FFFFFF"/><path id="Shape" d="m0 41c0 .5522847.44771525 1 1 1h5.839c-1.80612012-6.3376676-.66396658-13.1516601 3.11-18.554.01794785-.0285299.03765255-.0559161.059-.082 4.1113367-5.868988 10.8267404-9.3639146 17.9925-9.3639146s13.8811633 3.4949266 17.9925 9.3639146c.021.026.038.053.057.081 3.774751 5.4023761 4.9172967 12.2168848 3.111 18.555h5.839c.5522847 0 1-.4477153 1-1v-33h-56zm9-30h9c.5522847 0 1 .4477153 1 1s-.4477153 1-1 1h-9c-.55228475 0-1-.4477153-1-1s.44771525-1 1-1zm-6 0h2c.55228475 0 1 .4477153 1 1s-.44771525 1-1 1h-2c-.55228475 0-1-.4477153-1-1s.44771525-1 1-1zm0 4h8c.5522847 0 1 .4477153 1 1s-.4477153 1-1 1h-8c-.55228475 0-1-.4477153-1-1s.44771525-1 1-1zm0 4h2c.55228475 0 1 .4477153 1 1s-.44771525 1-1 1h-2c-.55228475 0-1-.4477153-1-1s.44771525-1 1-1z" data-original="#000000" class="active-path" data-old_color="#000000" fill="#FFFFFF"/></g></g></g> </svg>
