<?xml version="1.0"?>
<svg xmlns="http://www.w3.org/2000/svg" xmlns:xlink="http://www.w3.org/1999/xlink" version="1.1" id="Capa_1" x="0px" y="0px" viewBox="0 0 434.678 434.678" style="enable-background:new 0 0 434.678 434.678;" xml:space="preserve" width="512px" height="512px" class=""><g><path style="fill:#009DFF" d="M409.078,31.347v371.984c0,8.882-6.792,15.673-15.673,15.673H145.241V15.673h248.163  C402.286,15.673,409.078,22.465,409.078,31.347z" data-original="#4DCFE0" class="active-path" data-old_color="#4DCFE0"/><path style="fill:#0671B3" d="M145.241,15.673v403.331H82.025c-8.882,0-15.673-6.792-15.673-15.673V362.58v-72.62v-72.62v-72.62  v-72.62V31.347c0-8.882,6.792-15.673,15.673-15.673C82.025,15.673,145.241,15.673,145.241,15.673z" data-original="#D4E1F4" class="" data-old_color="#D4E1F4"/><path style="fill:#022D47" d="M393.404,0H82.025C64.261,0,50.678,13.584,50.678,31.347v25.078H25.6  c-8.882,0-15.673,6.792-15.673,15.673S16.718,87.771,25.6,87.771h25.078v41.273H25.6c-8.882,0-15.673,6.792-15.673,15.673  c0,8.882,6.792,15.673,15.673,15.673h25.078v41.273H25.6c-8.882,0-15.673,6.792-15.673,15.673s6.792,15.673,15.673,15.673h25.078  v41.273H25.6c-8.882,0-15.673,6.792-15.673,15.673s6.792,15.673,15.673,15.673h25.078v41.273H25.6  c-8.882,0-15.673,6.792-15.673,15.673c0,8.882,6.792,15.673,15.673,15.673h25.078v25.078c0,17.763,13.584,31.347,31.347,31.347  h311.38c17.763,0,31.347-13.584,31.347-31.347V31.347C424.751,13.584,411.167,0,393.404,0z M82.025,31.347h47.543v371.984H82.025  V31.347z M393.404,403.331h-232.49V31.347h232.49V403.331z" data-original="#3A2C51" class="" data-old_color="#3A2C51"/></g> </svg>
