<?xml version="1.0"?>
<svg xmlns="http://www.w3.org/2000/svg" xmlns:xlink="http://www.w3.org/1999/xlink" version="1.1" id="Layer_1" x="0px" y="0px" viewBox="0 0 512 512" style="enable-background:new 0 0 512 512;" xml:space="preserve" width="512px" height="512px" class=""><g><g>
	<g>
		<path d="M425.298,51.358h-91.455V16.696c0-9.22-7.475-16.696-16.696-16.696H194.855c-9.22,0-16.696,7.475-16.696,16.696v34.662    H86.704c-9.22,0-16.696,7.475-16.696,16.696v51.357c0,9.22,7.475,16.696,16.696,16.696h5.072l15.26,359.906    c0.378,8.937,7.735,15.988,16.68,15.988h264.568c8.946,0,16.302-7.051,16.68-15.989l15.259-359.906h5.073    c9.22,0,16.696-7.475,16.696-16.696V68.054C441.994,58.832,434.519,51.358,425.298,51.358z M211.551,33.391h88.9v17.967h-88.9    V33.391z M372.283,478.609H139.719l-14.522-342.502h261.606L372.283,478.609z M408.602,102.715c-15.17,0-296.114,0-305.202,0    V84.749h305.202V102.715z" data-original="#000000" class="active-path" data-old_color="#000000" fill="#FFFFFF"/>
	</g>
</g><g>
	<g>
		<path d="M188.835,187.304c-9.22,0-16.696,7.475-16.696,16.696v206.714c0,9.22,7.475,16.696,16.696,16.696    c9.22,0,16.696-7.475,16.696-16.696V204C205.53,194.779,198.055,187.304,188.835,187.304z" data-original="#000000" class="active-path" data-old_color="#000000" fill="#FFFFFF"/>
	</g>
</g><g>
	<g>
		<path d="M255.998,187.304c-9.22,0-16.696,7.475-16.696,16.696v206.714c0,9.22,7.474,16.696,16.696,16.696    c9.22,0,16.696-7.475,16.696-16.696V204C272.693,194.779,265.218,187.304,255.998,187.304z" data-original="#000000" class="active-path" data-old_color="#000000" fill="#FFFFFF"/>
	</g>
</g><g>
	<g>
		<path d="M323.161,187.304c-9.22,0-16.696,7.475-16.696,16.696v206.714c0,9.22,7.475,16.696,16.696,16.696    s16.696-7.475,16.696-16.696V204C339.857,194.779,332.382,187.304,323.161,187.304z" data-original="#000000" class="active-path" data-old_color="#000000" fill="#FFFFFF"/>
	</g>
</g></g> </svg>
