<?xml version="1.0"?>
<svg xmlns="http://www.w3.org/2000/svg" xmlns:xlink="http://www.w3.org/1999/xlink" version="1.1" id="Capa_1" x="0px" y="0px" viewBox="0 0 378.474 378.474" style="enable-background:new 0 0 378.474 378.474;" xml:space="preserve" width="512px" height="512px" class="hovered-paths"><g><g>
	<g>
		<path style="fill:#0671B3" d="M362.69,9.49c2.566-0.401,4.971,1.354,5.372,3.919c0.222,1.419-0.217,2.862-1.192,3.917    l-65.306,89.339c-37.094-1.045-38.139-20.376-78.367-20.376s-41.796,20.376-83.069,20.376S98.853,87.858,61.76,86.29    L11.604,17.327c-1.762-1.907-1.645-4.882,0.262-6.645c1.055-0.975,2.498-1.414,3.917-1.192H362.69z" data-original="#D4E1F4" class="" data-old_color="#D4E1F4"/>
		<path style="fill:#009DFF" d="M301.564,106.666l-30.302,42.318c-25.618,35.076-41.318,76.403-45.453,119.641l1.045,100.31    h-75.233l1.045-100.31c-4.135-43.238-19.835-84.565-45.453-119.641L61.76,86.29c37.094,1.567,38.661,20.376,78.367,20.376    S181.4,86.29,223.196,86.29S264.47,105.621,301.564,106.666z" data-original="#00EFD1" class="hovered-path active-path" data-old_color="#00EFD1"/>
	</g>
	<path style="fill:#022D47" d="M376.796,8.446c-2.944-4.906-8.4-7.735-14.106-7.314H15.784C10.078,0.71,4.622,3.54,1.678,8.446   C-1.037,13.502-0.417,19.7,3.245,24.119l95.608,131.135c24.69,33.431,39.693,73.018,43.363,114.416l-1.045,99.265   c-0.197,2.509,1.009,4.922,3.135,6.269c2.035,1.696,4.691,2.454,7.314,2.09h75.233c2.624,0.365,5.279-0.394,7.314-2.09   c1.939-1.733,3.074-4.192,3.135-6.792l-1.045-99.265c3.749-41.38,18.744-80.946,43.363-114.416l30.302-41.796l65.306-88.816   C378.891,19.7,379.511,13.502,376.796,8.446z M262.902,142.715c-27.078,36.628-43.529,80.015-47.543,125.388l0,0l1.045,88.816   H162.07l1.045-89.339l0,0c-4.12-45.349-20.56-88.708-47.543-125.388l-29.257-39.706l7.837,3.657   c14.271,7.667,30.305,11.45,46.498,10.971c15.846,0.344,31.509-3.436,45.453-10.971c11.23-6.571,24.09-9.831,37.094-9.404   c12.841-0.444,25.537,2.821,36.571,9.404c7.389,3.625,15.081,6.597,22.988,8.882L262.902,142.715z M296.862,97.262   c-9.814-1.036-19.274-4.249-27.69-9.404c-14.011-7.9-29.895-11.871-45.975-11.494c-16.185-0.406-32.201,3.373-46.498,10.971   c-10.872,6.513-23.381,9.776-36.049,9.404c-12.986,0.264-25.802-2.985-37.094-9.404c-11.226-5.702-23.487-9.078-36.049-9.927   l-41.273-55.38h326.008L296.862,97.262z" data-original="#083863" class="" data-old_color="#083863"/>
</g></g> </svg>
