<svg width="65" height="28" viewBox="0 0 65 28" fill="none" xmlns="http://www.w3.org/2000/svg">
<path d="M43.5579 8.68682L36.6277 7.78594L33.5297 2.16826C33.4451 2.01445 33.3059 1.88994 33.1339 1.81426C32.7026 1.62383 32.1786 1.78252 31.9629 2.16826L28.8649 7.78594L21.9347 8.68682C21.7436 8.71123 21.5689 8.7918 21.4352 8.91387C21.2735 9.06252 21.1844 9.2625 21.1874 9.46988C21.1905 9.67726 21.2855 9.87506 21.4515 10.0198L26.4657 14.3924L25.2811 20.5667C25.2533 20.7103 25.271 20.858 25.3324 20.9931C25.3937 21.1282 25.496 21.2451 25.6279 21.3308C25.7598 21.4165 25.9158 21.4674 26.0784 21.4777C26.2409 21.4881 26.4034 21.4575 26.5476 21.3895L32.7463 18.4744L38.945 21.3895C39.1143 21.47 39.3108 21.4969 39.4991 21.4676C39.9741 21.3943 40.2934 20.9915 40.2115 20.5667L39.0269 14.3924L44.0411 10.0198C44.1775 9.9002 44.2676 9.74395 44.2949 9.57305C44.3686 9.1458 44.0356 8.7503 43.5579 8.68682Z" fill="#EBFF00"/>
<path d="M12.5275 3.89376L8.64658 3.38926L6.9117 0.243365C6.86431 0.157232 6.78636 0.0875051 6.69006 0.0451223C6.44855 -0.0615184 6.15507 0.0273488 6.03432 0.243365L4.29943 3.38926L0.418488 3.89376C0.311491 3.90743 0.213665 3.95255 0.138767 4.0209C0.0482192 4.10415 -0.00167666 4.21614 4.3022e-05 4.33227C0.0017627 4.4484 0.0549572 4.55917 0.147938 4.64024L2.95585 7.08887L2.29247 10.5465C2.27691 10.6269 2.28686 10.7096 2.32119 10.7853C2.35552 10.8609 2.41286 10.9264 2.4867 10.9744C2.56054 11.0224 2.64793 11.0509 2.73895 11.0567C2.82998 11.0625 2.92101 11.0453 3.00171 11.0072L6.47301 9.37481L9.9443 11.0072C10.0391 11.0524 10.1491 11.0674 10.2546 11.051C10.5206 11.01 10.6994 10.7844 10.6535 10.5465L9.99016 7.08887L12.7981 4.64024C12.8745 4.57325 12.9249 4.48575 12.9402 4.39005C12.9815 4.15079 12.795 3.9293 12.5275 3.89376Z" fill="#EBFF00"/>
<path d="M56.6362 22.5145L53.8641 22.1541L52.6249 19.907C52.591 19.8455 52.5353 19.7957 52.4665 19.7654C52.294 19.6893 52.0844 19.7527 51.9982 19.907L50.759 22.1541L47.9869 22.5145C47.9104 22.5242 47.8406 22.5564 47.7871 22.6053C47.7224 22.6647 47.6867 22.7447 47.688 22.8277C47.6892 22.9106 47.7272 22.9898 47.7936 23.0477L49.7993 24.7967L49.3254 27.2664C49.3143 27.3239 49.3214 27.3829 49.3459 27.437C49.3704 27.491 49.4114 27.5378 49.4641 27.5721C49.5169 27.6063 49.5793 27.6267 49.6443 27.6308C49.7093 27.635 49.7744 27.6227 49.832 27.5955L52.3115 26.4295L54.791 27.5955C54.8587 27.6277 54.9373 27.6385 55.0126 27.6268C55.2026 27.5975 55.3304 27.4363 55.2976 27.2664L54.8238 24.7967L56.8294 23.0477C56.884 22.9998 56.92 22.9373 56.931 22.8689C56.9604 22.6981 56.8272 22.5398 56.6362 22.5145Z" fill="#EBFF00"/>
<path d="M64.6117 6.45684L63.2257 6.27666L62.6061 5.15313C62.5891 5.12237 62.5613 5.09747 62.5269 5.08233C62.4406 5.04424 62.3358 5.07598 62.2927 5.15313L61.6731 6.27666L60.2871 6.45684C60.2488 6.46172 60.2139 6.47784 60.1871 6.50225C60.1548 6.53198 60.137 6.57198 60.1376 6.61345C60.1382 6.65493 60.1572 6.69449 60.1904 6.72344L61.1933 7.59795L60.9563 8.83282C60.9508 8.86154 60.9543 8.89109 60.9666 8.9181C60.9788 8.94511 60.9993 8.96851 61.0257 8.98564C61.0521 9.00277 61.0833 9.01295 61.1158 9.01502C61.1483 9.0171 61.1808 9.01098 61.2096 8.99737L62.4494 8.41436L63.6891 8.99737C63.723 9.01348 63.7623 9.01885 63.7999 9.01299C63.8949 8.99834 63.9588 8.91778 63.9424 8.83282L63.7055 7.59795L64.7083 6.72344C64.7356 6.69952 64.7536 6.66827 64.7591 6.63409C64.7738 6.54864 64.7072 6.46954 64.6117 6.45684Z" fill="#EBFF00"/>
</svg>
