<svg width="28" height="30" viewBox="0 0 28 30" fill="none" xmlns="http://www.w3.org/2000/svg">
<path d="M24.2788 0C26.0366 0 27.4522 1.42125 27.5356 3.09562V30L24.1906 27.1584L22.355 25.4888L20.3478 23.7403L21.1831 26.4947H3.63877C1.88564 26.4947 0.465332 25.1663 0.465332 23.3991V3.10125C0.465332 1.42688 1.88658 0.005625 3.64439 0.005625H24.2694L24.2788 0ZM16.6316 7.10437H16.5922L16.3381 7.35375C18.9313 8.10563 20.1856 9.2775 20.1856 9.2775C18.516 8.44219 17.0066 8.02219 15.5028 7.85156C14.4191 7.68563 13.3297 7.77375 12.4119 7.85156H12.1578C11.5719 7.85156 10.3222 8.10563 8.64689 8.77406C8.06564 9.02812 7.72908 9.19406 7.72908 9.19406C7.72908 9.19406 8.97877 7.93875 11.7425 7.27031L11.5719 7.10437C11.5719 7.10437 9.48221 7.02094 7.22658 8.69156C7.22658 8.69156 4.97096 12.6225 4.97096 17.4656C4.97096 17.4656 6.22064 19.6388 9.64908 19.7212C9.64908 19.7212 10.1516 19.0575 10.655 18.4716C8.73127 17.8856 7.97939 16.7137 7.97939 16.7137C7.97939 16.7137 8.15002 16.7972 8.39939 16.9631H8.47252C8.5119 16.9631 8.53158 16.9828 8.55033 17.0025V17.0119C8.57002 17.0316 8.58971 17.0456 8.62346 17.0456C9.03877 17.2162 9.44846 17.3822 9.78596 17.5481C10.3719 17.7975 11.1191 18.0506 12.0369 18.2175C13.1994 18.3881 14.5316 18.4669 16.0503 18.2175C16.7975 18.0469 17.5494 17.8856 18.3013 17.5481C18.785 17.2987 19.385 17.0503 20.0441 16.6256C20.0441 16.6256 19.2969 17.7975 17.2897 18.3834C17.7003 18.9647 18.2806 19.6331 18.2806 19.6331C21.7128 19.5553 23.046 17.3822 23.1191 17.475C23.1191 12.6366 20.8485 8.70094 20.8485 8.70094C18.8075 7.18219 16.8931 7.12406 16.5566 7.12406L16.625 7.09969L16.6316 7.10437ZM16.8416 12.6225C17.721 12.6225 18.4288 13.3697 18.4288 14.2875C18.4288 15.2156 17.7163 15.9619 16.8416 15.9619C15.9622 15.9619 15.2544 15.2147 15.2544 14.2969C15.2544 13.3687 15.9669 12.6225 16.8416 12.6225ZM11.1631 12.6225C12.0369 12.6225 12.7456 13.3697 12.7456 14.2875C12.7456 15.2156 12.0331 15.9619 11.1585 15.9619C10.2791 15.9619 9.56658 15.2147 9.56658 14.2969C9.56658 13.3687 10.2791 12.6225 11.1585 12.6225H11.1631Z" fill="#505050"/>
</svg>
