<svg width="32" height="32" viewBox="0 0 32 32" fill="none" xmlns="http://www.w3.org/2000/svg">
<path d="M22 22V28H6V4H16V2H6C5.46957 2 4.96086 2.21071 4.58579 2.58579C4.21071 2.96086 4 3.46957 4 4V28C4 28.5304 4.21071 29.0391 4.58579 29.4142C4.96086 29.7893 5.46957 30 6 30H22C22.5304 30 23.0391 29.7893 23.4142 29.4142C23.7893 29.0391 24 28.5304 24 28V22H22Z" fill="#505050"/>
<path d="M29.54 5.76L26.24 2.46C25.9409 2.16683 25.5388 2.00262 25.12 2.00262C24.7012 2.00262 24.2991 2.16683 24 2.46L10 16.46V22H15.53L29.53 8C29.8232 7.70091 29.9874 7.2988 29.9874 6.88C29.9874 6.46119 29.8232 6.05908 29.53 5.76H29.54ZM14.7 20H12V17.3L21.44 7.85L24.15 10.56L14.7 20ZM25.56 9.15L22.85 6.44L25.12 4.17L27.83 6.88L25.56 9.15Z" fill="#505050"/>
</svg>
