<svg width="29" height="29" viewBox="0 0 29 29" fill="none" xmlns="http://www.w3.org/2000/svg">
<path d="M28.0627 10.2117L19.3691 8.88865L15.4828 0.638245C15.3766 0.412354 15.202 0.22949 14.9863 0.118337C14.4453 -0.161338 13.7879 0.0717247 13.5174 0.638245L9.63108 8.88865L0.937449 10.2117C0.697766 10.2476 0.478627 10.3659 0.310849 10.5452C0.108015 10.7635 -0.00375586 11.0572 9.63728e-05 11.3618C0.0039486 11.6663 0.123109 11.9568 0.331393 12.1694L6.62135 18.5912L5.13532 27.6591C5.10047 27.8701 5.12276 28.087 5.19967 28.2854C5.27657 28.4837 5.405 28.6555 5.57041 28.7813C5.73581 28.9071 5.93157 28.9819 6.13548 28.9971C6.33939 29.0123 6.5433 28.9674 6.72408 28.8675L14.5001 24.5863L22.2761 28.8675C22.4884 28.9858 22.7349 29.0252 22.9711 28.9822C23.5669 28.8746 23.9675 28.283 23.8648 27.6591L22.3788 18.5912L28.6687 12.1694C28.8399 11.9938 28.9529 11.7643 28.9872 11.5133C29.0796 10.8858 28.6619 10.305 28.0627 10.2117Z" fill="#505050"/>
</svg>
