<?xml version="1.0" encoding="iso-8859-1"?>
<!-- Generator: Adobe Illustrator 19.0.0, SVG Export Plug-In . SVG Version: 6.00 Build 0)  -->
<svg version="1.1" id="Capa_1" xmlns="http://www.w3.org/2000/svg" xmlns:xlink="http://www.w3.org/1999/xlink" x="0px" y="0px"
	 viewBox="0 0 419.088 419.088" style="enable-background:new 0 0 419.088 419.088;" xml:space="preserve">
<g>
	<g>
		<path d="M389.376,204.112C370.624,185.376,346.064,176,321.488,176c-77.392,0-123.456,87.616-78.048,151.424l-69.04,69.04
			l22.624,22.624l69.04-69.04C282.64,361.856,302,368,321.488,368C406.24,368,450.032,264.768,389.376,204.112z M321.488,336
			c-35.376,0-64-28.624-64-64c0-35.376,28.624-64,64-64c35.376,0,64,28.624,64,64C385.488,307.376,356.864,336,321.488,336z"/>
	</g>
</g>
<g>
	<g>
		<path d="M353.488,0h-320c-17.68,0-32,14.32-32,32v256c0,17.68,14.32,32,32,32H202.88c-2.096-5.168-3.728-10.544-5.152-16
			c-1.328-5.216-2.448-10.544-3.136-16H33.488v-77.456c38.448-34.72,63.376-58.544,112-58.544c25.12,0,35.472,4.416,88.608,26.928
			l16.032,6.72c5.072-4.192,10.56-7.888,16.32-11.152c-6.08-2.56-12.112-5.104-17.6-7.392c20.64-14.432,45.536-23.104,72.64-23.104
			c23.344,0,45.152,6.352,64,17.264V32C385.488,14.32,371.168,0,353.488,0z M225.488,128c-52.832,0-52.944-80,0-80
			C278.4,48,278.352,128,225.488,128z"/>
	</g>
</g>
<g>
</g>
<g>
</g>
<g>
</g>
<g>
</g>
<g>
</g>
<g>
</g>
<g>
</g>
<g>
</g>
<g>
</g>
<g>
</g>
<g>
</g>
<g>
</g>
<g>
</g>
<g>
</g>
<g>
</g>
</svg>
