<?xml version="1.0" encoding="utf-8"?>
<!-- Generator: Adobe Illustrator 23.0.3, SVG Export Plug-In . SVG Version: 6.00 Build 0)  -->
<svg version="1.1" id="Logo" xmlns="http://www.w3.org/2000/svg" xmlns:xlink="http://www.w3.org/1999/xlink" x="0px" y="0px"
	 viewBox="0 0 800 800" style="enable-background:new 0 0 800 800;" xml:space="preserve">
<style type="text/css">
	.st0{fill:#FFFFFF;}
</style>
<path class="st0" d="M331.5,237.5l30-14c0,0,13,116-102,175v-33C259.5,365.5,333.5,323.5,331.5,237.5z"/>
<path class="st0" d="M511.5,237.5l-30-14c0,0-13,116,102,175v-33C583.5,365.5,509.5,323.5,511.5,237.5z"/>
<path class="st0" d="M321.5,504.5c0,0,92-68,201,0l-28,17c0,0-67-42-146,0L321.5,504.5z"/>
<path class="st0" d="M451.5,215.5c-30-5-60,0-60,0c13,162-125,215-125,215c11,31,31,51,31,51c134-87,248,0,248,0c19-16,30-51,30-51
	C432.5,362.5,451.5,215.5,451.5,215.5z M402.5,387.5c9-9,17-31,17-31c4,13,18,31,18,31H402.5z"/>
</svg>
